# Blender v3.0.1 OBJ File: ''
# www.blender.org
o Sphere
v -0.000275 -0.000000 -0.307332
v 0.000000 -0.106066 -0.106066
v 0.075410 0.106104 0.000038
v 0.086604 0.000044 0.000093
v 0.075334 -0.106028 0.000038
v -0.000000 0.344262 0.000000
v -0.000000 0.106066 0.106066
v 0.000275 -0.000000 0.307332
v -0.000000 -0.106066 0.106066
v 0.000000 -0.344262 0.000000
v -0.075334 0.106028 -0.000038
v -0.086604 -0.000044 -0.000093
v -0.075410 -0.106104 -0.000038
v 0.000000 0.106066 -0.106066
vt 0.750000 0.750000
vt 0.625000 1.000000
vt 0.500000 0.750000
vt 0.625000 0.000000
vt 0.750000 0.250000
vt 0.500000 0.250000
vt 0.500000 0.500000
vt 0.750000 0.500000
vt 0.375000 0.000000
vt 0.250000 0.250000
vt 0.250000 0.750000
vt 0.250000 0.500000
vt 0.375000 1.000000
vt 0.125000 0.000000
vt 0.000000 0.250000
vt 0.000000 0.500000
vt 0.125000 1.000000
vt 0.000000 0.750000
vt 1.000000 0.750000
vt 0.875000 1.000000
vt 0.875000 0.000000
vt 1.000000 0.250000
vt 1.000000 0.500000
vn 0.7892 0.2498 -0.5610
vn 0.7896 -0.2496 -0.5605
vn 0.8560 0.4569 -0.2420
vn 0.8124 -0.0860 -0.5768
vn 0.7894 -0.2497 0.5608
vn 0.8555 0.4585 0.2405
vn 0.8121 -0.0866 0.5770
vn 0.7890 0.2499 0.5613
vn -0.7892 -0.2498 0.5610
vn -0.8561 0.4567 0.2419
vn -0.8121 -0.0854 0.5772
vn -0.7896 0.2496 0.5605
vn -0.7894 0.2497 -0.5608
vn -0.7890 -0.2499 -0.5613
vn -0.8557 0.4583 -0.2404
vn -0.8119 -0.0860 -0.5775
vn 0.8121 0.0854 -0.5772
vn 0.8561 -0.4567 -0.2419
vn 0.8119 0.0860 0.5775
vn 0.8557 -0.4583 0.2404
vn -0.8124 0.0860 0.5768
vn -0.8560 -0.4569 0.2420
vn -0.8121 0.0866 -0.5770
vn -0.8555 -0.4585 -0.2405
s off
f 14/1/1 6/2/1 3/3/1
f 10/4/2 2/5/2 5/6/2
f 14/1/3 4/7/3 1/8/3
f 2/5/4 4/7/4 5/6/4
f 10/9/5 5/6/5 9/10/5
f 4/7/6 7/11/6 8/12/6
f 4/7/7 9/10/7 5/6/7
f 3/3/8 6/13/8 7/11/8
f 10/14/9 9/10/9 13/15/9
f 7/11/10 12/16/10 8/12/10
f 9/10/11 12/16/11 13/15/11
f 7/11/12 6/17/12 11/18/12
f 11/19/13 6/20/13 14/1/13
f 10/21/14 13/22/14 2/5/14
f 12/23/15 14/1/15 1/8/15
f 12/23/16 2/5/16 13/22/16
f 14/1/17 3/3/17 4/7/17
f 2/5/18 1/8/18 4/7/18
f 4/7/19 3/3/19 7/11/19
f 4/7/20 8/12/20 9/10/20
f 7/11/21 11/18/21 12/16/21
f 9/10/22 8/12/22 12/16/22
f 12/23/23 11/19/23 14/1/23
f 12/23/24 1/8/24 2/5/24
